<?xml version="1.0" encoding="utf-8"?>
<!-- Generator: Adobe Illustrator 17.0.0, SVG Export Plug-In . SVG Version: 6.00 Build 0)  -->
<!DOCTYPE svg PUBLIC "-//W3C//DTD SVG 1.1//EN" "http://www.w3.org/Graphics/SVG/1.1/DTD/svg11.dtd">
<svg version="1.1" id="Capa_1" xmlns="http://www.w3.org/2000/svg" xmlns:xlink="http://www.w3.org/1999/xlink" x="0px" y="0px"
	 width="176.45px" height="32px" viewBox="0 0 176.45 32" enable-background="new 0 0 176.45 32" xml:space="preserve">
<desc>Created with Lunacy</desc>
<g>
	<g>
		<polygon fill="#FFFFFF" points="22.048,11.075 22.048,5.878 17.742,1.34 5.602,1.34 1.341,5.879 1.341,26.121 5.602,30.66 
			17.742,30.66 22.048,26.122 22.048,21.187 16.029,21.187 16.029,24.322 14.4,25.916 8.873,25.916 8.873,25.916 7.316,24.322 
			7.316,7.715 8.915,6.09 14.43,6.09 16.029,7.715 16.029,11.075 		"/>
	</g>
	<g>
		<polygon fill="#FFFFFF" points="68.916,24.026 68.916,24.072 68.916,25.911 61.164,25.911 61.164,6.077 62.957,6.077 
			62.957,6.004 62.957,1.385 62.957,1.335 53.441,1.335 53.441,1.385 53.441,6.004 53.441,6.077 55.233,6.077 55.233,25.911 
			53.441,25.911 53.441,25.952 53.441,30.616 53.441,30.66 73.404,30.66 73.404,30.616 73.404,24.072 73.404,24.026 		"/>
	</g>
	<g>
		<polygon fill="#FFFFFF" points="94.241,24.026 94.241,24.072 94.241,25.911 86.49,25.911 86.49,6.077 88.282,6.077 88.282,6.004 
			88.282,1.385 88.282,1.335 78.767,1.335 78.767,1.385 78.767,6.004 78.767,6.077 80.559,6.077 80.559,25.911 78.767,25.911 
			78.767,25.952 78.767,30.616 78.767,30.66 98.73,30.66 98.73,30.616 98.73,24.072 98.73,24.026 		"/>
	</g>
	<g>
		<polygon fill="#FFFFFF" points="104.096,1.341 104.096,1.385 104.096,6.004 104.096,6.084 105.932,6.084 105.932,25.916 
			104.096,25.916 104.096,25.952 104.096,30.616 104.096,30.66 123.928,30.66 123.928,30.616 123.928,24.728 119.44,24.728 
			119.44,25.916 111.863,25.916 111.863,18.332 115.374,18.332 115.374,19.556 119.819,19.556 119.819,12.401 115.374,12.401 
			115.374,13.712 111.863,13.712 111.863,6.084 119.44,6.084 119.44,7.316 119.44,7.424 123.928,7.424 123.928,7.316 123.928,1.385 
			123.928,1.341 		"/>
	</g>
	<g>
		<polygon fill="#FFFFFF" points="155.278,1.341 155.278,1.385 155.278,6.004 155.278,6.084 157.114,6.084 157.114,25.916 
			155.278,25.916 155.278,25.952 155.278,30.616 155.278,30.66 175.11,30.66 175.11,30.616 175.11,24.728 170.621,24.728 
			170.621,25.916 163.045,25.916 163.045,18.332 166.556,18.332 166.556,19.556 171.001,19.556 171.001,12.401 166.556,12.401 
			166.556,13.712 163.045,13.712 163.045,6.084 170.621,6.084 170.621,7.316 170.621,7.424 175.11,7.424 175.11,7.316 175.11,1.385 
			175.11,1.341 		"/>
	</g>
	<g>
		<polygon fill="#FFFFFF" points="149.91,10.545 149.91,5.878 145.567,1.341 133.593,1.335 129.291,5.879 129.291,26.121 
			133.575,30.66 145.569,30.66 149.91,26.122 149.91,16.32 141.082,16.32 141.082,20.371 143.891,20.371 143.891,24.326 
			142.339,25.952 136.858,25.952 135.265,24.322 135.265,7.715 136.796,6.078 142.399,6.078 143.891,7.712 143.891,10.545 		"/>
	</g>
	<g>
		<path fill="#FFFFFF" d="M48.078,5.878l-4.302-4.53H31.734l-4.298,4.539v20.242l4.273,4.532l12.094,0l4.275-4.537V5.878z
			 M42.124,24.329l-1.558,1.594h-5.598l-0.007-0.007h-0.014l-1.558-1.594V7.715l1.531-1.638h5.665l1.538,1.645V24.329z"/>
	</g>
	<linearGradient id="SVGID_1_" gradientUnits="userSpaceOnUse" x1="0" y1="16" x2="176.4503" y2="16">
		<stop  offset="0.0314" style="stop-color:#FF2C92"/>
		<stop  offset="0.4869" style="stop-color:#BC5FFF"/>
		<stop  offset="1" style="stop-color:#48FFFF"/>
	</linearGradient>
	<path fill="url(#SVGID_1_)" d="M9.452,7.433h4.44l0.796,0.825l0.006,4.158l8.699-0.004l-0.026-7.136L18.285,0H5.059L0,5.298v21.404
		L5.059,32h13.226l5.103-5.298v-6.9h-8.7v3.975c-0.173,0.17-0.309,0.301-0.408,0.39c-0.115,0.103-0.247,0.234-0.401,0.4H9.462
		c-0.188-0.199-0.349-0.351-0.489-0.466c-0.087-0.072-0.194-0.173-0.317-0.303V8.257L9.452,7.433z M8.873,25.916H14.4l1.629-1.594
		v-3.135h6.018v4.935l-4.306,4.537H5.602l-4.261-4.539V5.879L5.602,1.34h12.14l4.306,4.537v5.197h-6.018v-3.36L14.43,6.09H8.915
		L7.316,7.715v16.607L8.873,25.916z M67.575,24.568h-5.07V7.433h1.792V0H52.1v7.433h1.792v17.135H52.1V32h22.645v-9.312h-7.174
		L67.575,24.568z M68.916,24.072v-0.047h4.488v0.047v6.543v0.044H53.441v-0.044v-4.663v-0.041h1.792V6.077h-1.792V6.004V1.385v-0.05
		h9.516v0.05v4.619v0.073h-1.792v19.834h7.752V24.072z M92.901,24.568h-5.07V7.433h1.792V0H77.426v7.433h1.792v17.135h-1.792V32
		h22.645v-9.312h-7.174L92.901,24.568z M94.241,24.072v-0.047h4.488v0.047v6.543v0.044H78.767v-0.044v-4.663v-0.041h1.792V6.077
		h-1.792V6.004V1.385v-0.05h9.516v0.05v4.619v0.073H86.49v19.834h7.752V24.072z M102.751,7.433h1.84v17.135h-1.84V32h22.505v-8.613
		h-7.114v1.18h-4.939v-4.892h0.83v1.227h7.127v-9.84h-7.127v1.304h-0.83V7.433h4.939l-0.003,1.332h7.129V0h-22.517V7.433z
		 M104.096,6.004V1.385V1.341h19.832v0.044v5.931v0.109h-4.488V7.316V6.084h-7.577v7.628h3.511v-1.311h4.445v7.155h-4.445v-1.224
		h-3.511v7.585h7.577v-1.188h4.488v5.887v0.044h-19.832v-0.044v-4.663v-0.036h1.836V6.084h-1.836V6.004z M176.45,8.765V0h-22.517
		v7.433h1.84v17.135h-1.84V32h22.505v-8.613h-7.114v1.18h-4.939v-4.892h0.83v1.227h7.127v-9.84h-7.127v1.304h-0.83V7.433h4.939
		l-0.003,1.332H176.45z M163.045,6.084v7.628h3.511v-1.311h4.445v7.155h-4.445v-1.224h-3.511v7.585h7.577v-1.188h4.488v5.887v0.044
		h-19.832v-0.044v-4.663v-0.036h1.836V6.084h-1.836v-0.08V1.385V1.341h19.832v0.044v5.931v0.109h-4.488V7.316V6.084H163.045z
		 M133.009,0l-5.059,5.298v21.404L133.009,32h13.138l5.103-5.298V14.987h-11.509v6.769h2.81v2.032l-0.753,0.781h-4.405
		c-0.197-0.194-0.352-0.342-0.465-0.444c-0.086-0.077-0.193-0.185-0.321-0.324V8.257l0.785-0.839l4.358-0.003
		c0,0,0.633,0.676,0.801,0.848v3.618h8.7V5.298L146.147,0H133.009z M149.91,10.545h-6.018V7.712L142.4,6.078h-5.604l-1.53,1.637
		v16.607l1.593,1.63h5.481l1.553-1.626v-3.955h-2.81V16.32h8.828v9.803l-4.34,4.537h-11.994l-4.285-4.539V5.879l4.303-4.545
		l11.974,0.006l4.343,4.537V10.545z M34.921,6.077L33.39,7.715v16.607l1.558,1.594h0.014l0.007,0.007h5.598l1.558-1.594V7.722
		l-1.538-1.645H34.921z M40.763,23.778c-0.173,0.17-0.309,0.301-0.408,0.39c-0.115,0.103-0.247,0.234-0.402,0.4h-4.416
		c-0.188-0.199-0.349-0.351-0.489-0.466c-0.087-0.072-0.194-0.173-0.317-0.303V8.257l0.796-0.824h4.44l0.796,0.825V23.778z
		 M31.134,0l-5.059,5.298v21.404L31.134,32H44.36l5.059-5.298V5.298L44.36,0H31.134z M48.078,26.122l-4.275,4.537l-12.094,0
		l-4.273-4.532V5.886l4.298-4.539h12.042l4.302,4.53V26.122z"/>
</g>
</svg>
